<mxfile host="app.diagrams.net" agent="Mozilla/5.0 (Windows NT 10.0; Win64; x64) AppleWebKit/537.36 (KHTML, like Gecko) Chrome/139.0.0.0 Safari/537.36" version="28.2.0">
  <diagram name="Page-1" id="tbiHOsFoC7xFjzn3pF2t">
    <mxGraphModel dx="1426" dy="785" grid="1" gridSize="10" guides="1" tooltips="1" connect="1" arrows="1" fold="1" page="1" pageScale="1" pageWidth="827" pageHeight="1169" math="0" shadow="0">
      <root>
        <mxCell id="0" />
        <mxCell id="1" parent="0" />
        <mxCell id="ImfLBctxZ6qKN8Lt8eN2-8" value="" style="ellipse;whiteSpace=wrap;html=1;fillColor=#dae8fc;strokeColor=#6c8ebf;" vertex="1" parent="1">
          <mxGeometry x="640" y="320" width="50" height="80" as="geometry" />
        </mxCell>
        <mxCell id="ImfLBctxZ6qKN8Lt8eN2-1" value="&lt;b&gt;&lt;font style=&quot;font-size: 19px;&quot;&gt;Youtube&lt;/font&gt;&lt;/b&gt;" style="whiteSpace=wrap;html=1;aspect=fixed;fillColor=#f8cecc;strokeColor=#b85450;" vertex="1" parent="1">
          <mxGeometry x="40" y="230" width="100" height="100" as="geometry" />
        </mxCell>
        <mxCell id="ImfLBctxZ6qKN8Lt8eN2-2" value="&lt;b&gt;&lt;font style=&quot;font-size: 19px;&quot;&gt;Twitch&lt;/font&gt;&lt;/b&gt;" style="whiteSpace=wrap;html=1;aspect=fixed;fillColor=#e1d5e7;strokeColor=#9673a6;" vertex="1" parent="1">
          <mxGeometry x="40" y="400" width="100" height="100" as="geometry" />
        </mxCell>
        <mxCell id="ImfLBctxZ6qKN8Lt8eN2-3" value="&lt;b&gt;Data Ingestion&lt;/b&gt;" style="shape=dataStorage;whiteSpace=wrap;html=1;fixedSize=1;fillColor=#dae8fc;strokeColor=#6c8ebf;" vertex="1" parent="1">
          <mxGeometry x="200" y="320" width="130" height="80" as="geometry" />
        </mxCell>
        <mxCell id="ImfLBctxZ6qKN8Lt8eN2-4" value="&lt;b&gt;Data Processing&lt;/b&gt;" style="shape=dataStorage;whiteSpace=wrap;html=1;fixedSize=1;fillColor=#dae8fc;strokeColor=#6c8ebf;" vertex="1" parent="1">
          <mxGeometry x="310" y="320" width="140" height="80" as="geometry" />
        </mxCell>
        <mxCell id="ImfLBctxZ6qKN8Lt8eN2-9" value="" style="shape=flexArrow;endArrow=classic;html=1;rounded=0;" edge="1" parent="1">
          <mxGeometry width="50" height="50" relative="1" as="geometry">
            <mxPoint x="150" y="300" as="sourcePoint" />
            <mxPoint x="200" y="330" as="targetPoint" />
          </mxGeometry>
        </mxCell>
        <mxCell id="ImfLBctxZ6qKN8Lt8eN2-10" value="" style="shape=flexArrow;endArrow=classic;html=1;rounded=0;" edge="1" parent="1">
          <mxGeometry width="50" height="50" relative="1" as="geometry">
            <mxPoint x="150" y="420" as="sourcePoint" />
            <mxPoint x="200" y="380" as="targetPoint" />
          </mxGeometry>
        </mxCell>
        <mxCell id="ImfLBctxZ6qKN8Lt8eN2-11" value="&lt;b&gt;Data Storage&lt;/b&gt;" style="shape=dataStorage;whiteSpace=wrap;html=1;fixedSize=1;fillColor=#dae8fc;strokeColor=#6c8ebf;" vertex="1" parent="1">
          <mxGeometry x="430" y="320" width="130" height="80" as="geometry" />
        </mxCell>
        <mxCell id="ImfLBctxZ6qKN8Lt8eN2-12" value="&lt;b&gt;Data Analysis&lt;/b&gt;" style="shape=dataStorage;whiteSpace=wrap;html=1;fixedSize=1;fillColor=#dae8fc;strokeColor=#6c8ebf;" vertex="1" parent="1">
          <mxGeometry x="540" y="320" width="130" height="80" as="geometry" />
        </mxCell>
        <mxCell id="ImfLBctxZ6qKN8Lt8eN2-13" value="&lt;b&gt;&lt;font style=&quot;font-size: 19px;&quot;&gt;Data Pipeline&lt;/font&gt;&lt;/b&gt;" style="text;html=1;align=center;verticalAlign=middle;resizable=0;points=[];autosize=1;strokeColor=none;fillColor=none;" vertex="1" parent="1">
          <mxGeometry x="360" y="280" width="140" height="40" as="geometry" />
        </mxCell>
        <mxCell id="ImfLBctxZ6qKN8Lt8eN2-14" value="" style="html=1;shadow=0;dashed=0;align=center;verticalAlign=middle;shape=mxgraph.arrows2.arrow;dy=0.6;dx=40;direction=south;notch=0;" vertex="1" parent="1">
          <mxGeometry x="410" y="410" width="55" height="100" as="geometry" />
        </mxCell>
        <mxCell id="ImfLBctxZ6qKN8Lt8eN2-17" value="&lt;font style=&quot;font-size: 15px;&quot;&gt;&lt;b&gt;Data Dashboard&lt;/b&gt;&lt;/font&gt;" style="whiteSpace=wrap;html=1;aspect=fixed;fillColor=#d5e8d4;strokeColor=#82b366;" vertex="1" parent="1">
          <mxGeometry x="377.5" y="520" width="120" height="120" as="geometry" />
        </mxCell>
        <mxCell id="ImfLBctxZ6qKN8Lt8eN2-18" value="Raw Chat data" style="text;html=1;align=center;verticalAlign=middle;resizable=0;points=[];autosize=1;strokeColor=none;fillColor=none;" vertex="1" parent="1">
          <mxGeometry x="140" y="270" width="100" height="30" as="geometry" />
        </mxCell>
        <mxCell id="ImfLBctxZ6qKN8Lt8eN2-19" value="Raw Chat data" style="text;html=1;align=center;verticalAlign=middle;resizable=0;points=[];autosize=1;strokeColor=none;fillColor=none;" vertex="1" parent="1">
          <mxGeometry x="140" y="420" width="100" height="30" as="geometry" />
        </mxCell>
        <mxCell id="ImfLBctxZ6qKN8Lt8eN2-20" value="Processed Output from Pipeline" style="text;html=1;align=center;verticalAlign=middle;whiteSpace=wrap;rounded=0;" vertex="1" parent="1">
          <mxGeometry x="460" y="435" width="190" height="30" as="geometry" />
        </mxCell>
        <mxCell id="ImfLBctxZ6qKN8Lt8eN2-21" value="&lt;font style=&quot;font-size: 25px;&quot;&gt;&lt;b&gt;Live Stream Sentiment Analysis High Level Flow Diagram&lt;/b&gt;&lt;/font&gt;" style="text;html=1;align=center;verticalAlign=middle;resizable=0;points=[];autosize=1;strokeColor=none;fillColor=none;fontStyle=0" vertex="1" parent="1">
          <mxGeometry x="59" y="50" width="710" height="40" as="geometry" />
        </mxCell>
      </root>
    </mxGraphModel>
  </diagram>
</mxfile>
